<svg xmlns="http://www.w3.org/2000/svg" viewBox="0 0 120 120">
  <defs><style>.cls-1{fill-rule:evenodd;}</style></defs>
  <rect width="120" height="120" rx="24" fill="#fbfaf4"/>
  <path class="cls-1" fill="#20808d" transform="translate(10, 10)" d="M83.549,16.411A8.8,8.8,0,0,0,77.3,13.764c-.194,0-.164,0-.217,0a1.259,1.259,0,0,1-.262-.021H22.977a9.242,9.242,0,0,0-9.212,9.212V76.929a9.387,9.387,0,0,0,2.728,6.593,9.109,9.109,0,0,0,6.484,2.742H77.023a9.242,9.242,0,0,0,9.212-9.212,1.27,1.27,0,0,1,.026-.256V22.979c0-.2,0-.184,0-.23A9.339,9.339,0,0,0,83.549,16.411ZM74.093,66.4a7.65,7.65,0,0,1-7.631,7.631h-32.8A7.648,7.648,0,0,1,26.03,66.4V33.6a7.65,7.65,0,0,1,7.631-7.631h32.8A7.651,7.651,0,0,1,74.093,33.6ZM85.317,85.346a11.913,11.913,0,0,0,.944-1.065v1.507A9.242,9.242,0,0,1,77.049,95H23.074a9.16,9.16,0,0,1-5.969-2.207,9.287,9.287,0,0,1-2.741-4H77.023A11.707,11.707,0,0,0,85.317,85.346ZM95,22.953V76.929A9.168,9.168,0,0,1,92.791,82.9a9.291,9.291,0,0,1-4,2.74V22.979c0-.026,0-.07-.008-.29a11.877,11.877,0,0,0-4.435-8.948h1.438A9.242,9.242,0,0,1,95,22.953Zm-81.26-7.228,0-1.539h.005a9.076,9.076,0,0,1,.089-1.274V12.9A9.244,9.244,0,0,1,22.919,5h.032v0H76.926A9.16,9.16,0,0,1,82.9,7.212a9.3,9.3,0,0,1,2.741,4H22.977a11.707,11.707,0,0,0-8.294,3.448A11.955,11.955,0,0,0,13.738,15.725ZM15.78,86.264H14.214A9.242,9.242,0,0,1,5,77.052V23.076a9.168,9.168,0,0,1,2.207-5.969,9.291,9.291,0,0,1,4.005-2.742l.025,8.28c0,.1,0,.205,0,.308V76.929a12,12,0,0,0,4.545,9.335Z"/>
</svg>
